<svg xmlns="http://www.w3.org/2000/svg" viewBox="0 0 256 256" width="32" height="32">
  <defs>
    <linearGradient id="snakeGradient1" x1="0%" y1="0%" x2="100%" y2="100%">
      <stop offset="0%" stop-color="#41D1FF"/>
      <stop offset="100%" stop-color="#BD34FE"/>
    </linearGradient>
    <linearGradient id="snakeGradient2" x1="0%" y1="0%" x2="100%" y2="100%">
      <stop offset="0%" stop-color="#FFEA83"/>
      <stop offset="50%" stop-color="#FFDD35"/>
      <stop offset="100%" stop-color="#FFA800"/>
    </linearGradient>
  </defs>
  <path fill="url(#snakeGradient1)" d="M128 10c-50 0-90 40-90 90 0 35 25 50 50 60 20 8 40 16 40 40s-20 30-40 30-40-10-40-30h-30c0 40 40 60 70 60s70-20 70-60-40-50-70-60c-20-8-40-16-40-40s20-30 40-30 40 10 40 30h30c0-50-40-90-90-90z"/>
  <circle fill="url(#snakeGradient2)" cx="90" cy="50" r="10"/>
</svg>
